<svg width="126" height="25" viewBox="0 0 126 25" fill="none" xmlns="http://www.w3.org/2000/svg">
<g clip-path="url(#clip0_561_92)">
<mask id="mask0_561_92" style="mask-type:luminance" maskUnits="userSpaceOnUse" x="58" y="0" width="13" height="25">
<path d="M70.8275 0.13623H58.6177V25.0001H70.8275V0.13623Z" fill="white"/>
</mask>
<g mask="url(#mask0_561_92)">
<path d="M82.0856 8.94056C81.1232 6.07979 79.3729 3.82713 76.7871 2.2619C74.3177 0.765419 71.6473 0.263066 68.8024 0.781283C66.3963 1.22018 64.3129 2.30421 62.5943 4.03865C60.2412 6.41293 59.025 9.2737 58.9985 12.4412C59.0461 14.0751 59.2894 15.4764 59.8393 16.8143C61.2776 20.3202 63.7471 22.7685 67.3429 24.0376C69.1461 24.6722 70.9968 24.7938 72.8741 24.4289C75.2166 23.9741 77.226 22.869 78.9182 21.2033C80.843 19.3049 82.0592 17.0258 82.4981 14.3448C82.7995 12.5099 82.6885 10.7067 82.0962 8.94585L82.0856 8.94056ZM78.8812 18.9982C77.8659 20.2462 76.6972 21.3143 75.2642 22.0599C73.6831 22.8848 72.0016 23.2709 70.2195 23.1387C67.8294 22.9641 65.7777 22.0017 64.0379 20.3625C63.2342 19.6063 62.5256 18.7708 61.9545 17.8243C61.8805 17.7079 61.8064 17.5863 61.7588 17.4277C61.9756 17.4541 62.1607 17.5282 62.3458 17.6022C63.1813 17.9459 63.8634 18.4906 64.461 19.1568C65.0691 19.8284 65.7142 20.463 66.4968 20.9442C67.9087 21.8167 69.4422 22.245 71.1026 22.1815C73.0909 22.1075 74.8253 21.4042 76.2954 20.0664C76.7343 19.6645 77.1097 19.2044 77.5274 18.7867C78.1408 18.1839 78.8389 17.7132 79.6743 17.47C79.7378 17.4488 79.8013 17.4171 79.9017 17.4436C79.6109 18.0094 79.2725 18.517 78.8812 18.9982ZM80.6843 15.5822C80.6526 15.688 80.6103 15.7461 80.4887 15.7567C79.5792 15.8466 78.7437 16.1692 77.9558 16.6186C77.1308 17.0893 76.4857 17.7661 75.8406 18.443C74.9152 19.4159 73.8312 20.151 72.5092 20.4735C70.1666 21.0552 68.1044 20.4894 66.2959 18.9136C65.8041 18.4853 65.3916 17.9776 64.9157 17.5334C63.8529 16.5446 62.6049 15.9365 61.1613 15.7461C61.0661 15.7356 61.0132 15.7038 60.9815 15.5981C59.9345 11.9811 60.5955 8.7026 62.9698 5.78895C64.5138 3.89587 66.5233 2.72195 68.9187 2.23546C71.1766 1.7807 73.3394 2.10327 75.3805 3.15556C78.0827 4.54629 79.833 6.74607 80.7425 9.62799C81.0122 10.4846 81.1444 11.3677 81.1497 12.2032C81.1761 13.393 81.0069 14.4929 80.6896 15.5663L80.6843 15.5822Z" fill="white"/>
<path d="M66.6025 7.5869C67.1313 7.84072 67.6019 8.20559 67.9827 8.65506C68.0197 8.70265 68.062 8.74496 68.099 8.79255C68.2206 8.93003 68.4374 8.91946 68.5432 8.76611C68.8499 8.32192 69.146 7.88302 69.4474 7.44412C69.8652 6.83601 70.2935 6.23847 70.7165 5.63036C70.7906 5.51932 70.8382 5.5246 70.9069 5.63036C71.0285 5.81544 71.166 5.98994 71.2929 6.16973C71.9381 7.09512 72.5779 8.02051 73.223 8.9459C73.2442 8.97762 73.26 9.02522 73.2865 9.03579C73.3076 9.04108 73.3341 9.0305 73.3711 8.97762C73.8576 8.3325 74.4445 7.8037 75.2324 7.49172C75.1637 7.42826 75.1161 7.38596 75.0685 7.34365C73.6989 6.14858 72.3029 4.98523 70.9175 3.81131C70.8382 3.74257 70.7959 3.74786 70.7165 3.81131C69.844 4.55691 68.9609 5.29722 68.0884 6.04282C67.5808 6.47643 67.0732 6.91533 66.5708 7.35423C66.4174 7.49171 66.4174 7.497 66.6025 7.5869Z" fill="white"/>
<path d="M78.712 10.8335C78.4158 10.5533 78.1144 10.2783 77.8236 9.99803C77.7337 9.91342 77.6967 9.91343 77.6226 10.0192C77.0357 10.8494 76.4381 11.669 75.8459 12.4939C74.5556 14.2865 73.2495 16.0633 71.8482 17.7713C71.6155 18.0568 71.3776 18.3318 71.1449 18.6121C71.1291 18.5645 71.1343 18.5433 71.1449 18.5169C71.6208 17.2266 72.2554 16.0104 73.0168 14.8735C74.2754 12.9963 75.5921 11.1614 76.9193 9.33704C76.9934 9.23128 76.9722 9.18369 76.8929 9.11495C76.5809 8.8294 76.2689 8.53856 75.9622 8.24773C75.8988 8.18427 75.8459 8.20014 75.7771 8.23186C75.719 8.2583 75.6661 8.28474 75.6079 8.31118C75.1796 8.52799 74.8412 8.89814 74.6455 9.33704L71.9434 15.3759C71.9011 15.4763 71.753 15.4234 71.7742 15.3177L72.9745 9.86583C73.038 9.58557 72.8212 9.31589 72.5304 9.31589C71.3987 9.31589 70.2724 9.31589 69.1408 9.31589C68.85 9.31589 68.6384 9.58557 68.7019 9.86583L69.9023 15.3124C69.9234 15.4182 69.7753 15.4658 69.733 15.3706L67.0468 9.37406C66.8723 8.98804 66.592 8.66019 66.2324 8.4328C66.1161 8.35877 65.9945 8.29532 65.8728 8.23715C65.783 8.19485 65.7195 8.18956 65.6455 8.26359C65.4022 8.50155 65.1484 8.73422 64.8999 8.97217C64.6302 9.23128 64.6302 9.23128 64.8523 9.52741C65.9892 11.0715 67.0838 12.6473 68.1784 14.2178C69.0932 15.5345 69.897 16.9094 70.4681 18.4111C70.4681 18.4164 70.4681 18.4217 70.4734 18.427C70.4945 18.4799 70.4258 18.5222 70.394 18.4799C70.3517 18.4323 70.32 18.3847 70.2777 18.3371C69.236 17.1103 68.2471 15.8412 67.3006 14.5404C66.1954 13.0333 65.1061 11.5104 64.0168 9.99803C63.9639 9.924 63.9322 9.89227 63.8476 9.97159C63.5779 10.236 63.2976 10.4898 63.0227 10.7489C62.8323 10.9287 62.8376 10.9234 62.9856 11.1296C63.5779 11.944 64.1754 12.7636 64.7677 13.5832C65.5133 14.6091 66.2959 15.5979 67.2001 16.4916C68.2789 17.5598 69.5109 18.4323 70.7219 19.3365C70.7959 19.3947 70.8435 19.3894 70.9175 19.3365C71.4622 18.9135 72.0121 18.4904 72.5621 18.078C73.8047 17.1473 74.9258 16.0897 75.8882 14.8682C76.8823 13.6097 77.7971 12.293 78.749 11.0027C78.8177 10.9076 78.7543 10.8811 78.7067 10.8388L78.712 10.8335Z" fill="white"/>
</g>
<mask id="mask1_561_92" style="mask-type:luminance" maskUnits="userSpaceOnUse" x="70" y="0" width="14" height="25">
<path d="M70.8224 25H83.0322V0.136143H70.8224V25Z" fill="white"/>
</mask>
<g mask="url(#mask1_561_92)">
<path d="M59.5642 8.94056C60.5266 6.07979 62.2769 3.82713 64.8627 2.2619C67.3322 0.765419 70.0026 0.263066 72.8475 0.781283C75.2535 1.22018 77.3369 2.30421 79.0555 4.03865C81.4086 6.41293 82.6249 9.2737 82.6513 12.4412C82.6037 14.0751 82.3605 15.4764 81.8105 16.8143C80.3722 20.3202 77.9027 22.7685 74.3069 24.0376C72.5038 24.6722 70.653 24.7938 68.7758 24.4289C66.4332 23.9741 64.4238 22.869 62.7317 21.2033C60.8069 19.3049 59.5906 17.0258 59.1517 14.3448C58.8503 12.5099 58.9614 10.7067 59.5536 8.94585L59.5642 8.94056ZM62.7687 18.9982C63.784 20.2462 64.9526 21.3143 66.3856 22.0599C67.9667 22.8848 69.6483 23.2709 71.4303 23.1387C73.8205 22.9641 75.8722 22.0017 77.6119 20.3625C78.4157 19.6063 79.1243 18.7708 79.6954 17.8243C79.7694 17.7079 79.8434 17.5863 79.891 17.4277C79.6742 17.4541 79.4891 17.5282 79.304 17.6022C78.4685 17.9459 77.7864 18.4906 77.1889 19.1568C76.5808 19.8284 75.9356 20.463 75.153 20.9442C73.7411 21.8167 72.2076 22.245 70.5472 22.1815C68.559 22.1075 66.8245 21.4042 65.3545 20.0664C64.9156 19.6645 64.5401 19.2044 64.1224 18.7867C63.509 18.1839 62.811 17.7132 61.9755 17.47C61.912 17.4488 61.8486 17.4171 61.7481 17.4436C62.0389 18.0094 62.3774 18.517 62.7687 18.9982ZM60.9655 15.5822C60.9972 15.688 61.0395 15.7461 61.1611 15.7567C62.0707 15.8466 62.9062 16.1692 63.6941 16.6186C64.519 17.0893 65.1641 17.7661 65.8092 18.443C66.7346 19.4159 67.8187 20.151 69.1406 20.4735C71.4832 21.0552 73.5455 20.4894 75.354 18.9136C75.8457 18.4853 76.2582 17.9776 76.7341 17.5334C77.797 16.5446 79.0449 15.9365 80.4885 15.7461C80.5837 15.7356 80.6366 15.7038 80.6683 15.5981C81.7153 11.9811 81.0544 8.7026 78.6801 5.78895C77.136 3.89587 75.1266 2.72195 72.7311 2.23546C70.4732 1.7807 68.3104 2.10327 66.2693 3.15556C63.5672 4.54629 61.8169 6.74607 60.9073 9.62799C60.6376 10.4846 60.5054 11.3677 60.5002 12.2032C60.4737 13.393 60.6429 14.4929 60.9602 15.5663L60.9655 15.5822Z" fill="white"/>
<path d="M75.0474 7.5869C74.5186 7.84072 74.048 8.20559 73.6672 8.65506C73.6302 8.70265 73.5879 8.74496 73.5509 8.79255C73.4293 8.93003 73.2125 8.91946 73.1067 8.76611C72.8 8.32192 72.5039 7.88302 72.2025 7.44412C71.7847 6.83601 71.3564 6.23847 70.9334 5.63036C70.8593 5.51932 70.8118 5.5246 70.743 5.63036C70.6214 5.81544 70.4839 5.98994 70.357 6.16973C69.7119 7.09512 69.072 8.02051 68.4269 8.9459C68.4057 8.97762 68.3899 9.02522 68.3634 9.03579C68.3423 9.04108 68.3158 9.0305 68.2788 8.97762C67.7923 8.3325 67.2054 7.8037 66.4175 7.49172C66.4862 7.42826 66.5338 7.38596 66.5814 7.34365C67.951 6.14858 69.347 4.98523 70.7324 3.81131C70.8118 3.74257 70.8541 3.74786 70.9334 3.81131C71.8059 4.55691 72.689 5.29722 73.5615 6.04282C74.0691 6.47643 74.5768 6.91533 75.0791 7.35423C75.2325 7.49171 75.2325 7.497 75.0474 7.5869Z" fill="white"/>
<path d="M62.9379 10.8335C63.234 10.5533 63.5354 10.2783 63.8262 9.99803C63.9161 9.91342 63.9531 9.91343 64.0272 10.0192C64.6141 10.8494 65.2117 11.669 65.8039 12.4939C67.0942 14.2865 68.4003 16.0633 69.8016 17.7713C70.0343 18.0568 70.2722 18.3318 70.5049 18.6121C70.5208 18.5645 70.5155 18.5433 70.5049 18.5169C70.029 17.2266 69.3944 16.0104 68.633 14.8735C67.3744 12.9963 66.0577 11.1614 64.7305 9.33704C64.6564 9.23128 64.6776 9.18369 64.7569 9.11495C65.0689 8.8294 65.3809 8.53856 65.6876 8.24773C65.751 8.18427 65.8039 8.20014 65.8727 8.23186C65.9308 8.2583 65.9837 8.28474 66.0419 8.31118C66.4702 8.52799 66.8086 8.89814 67.0043 9.33704L69.7064 15.3759C69.7487 15.4763 69.8968 15.4234 69.8756 15.3177L68.6753 9.86583C68.6118 9.58557 68.8286 9.31589 69.1195 9.31589C70.2511 9.31589 71.3774 9.31589 72.509 9.31589C72.7999 9.31589 73.0114 9.58557 72.9479 9.86583L71.7476 15.3124C71.7264 15.4182 71.8745 15.4658 71.9168 15.3706L74.603 9.37406C74.7775 8.98804 75.0578 8.66019 75.4174 8.4328C75.5337 8.35877 75.6553 8.29532 75.777 8.23715C75.8669 8.19485 75.9303 8.18956 76.0043 8.26359C76.2476 8.50155 76.5014 8.73422 76.7499 8.97217C77.0196 9.23128 77.0196 9.23128 76.7975 9.52741C75.6606 11.0715 74.566 12.6473 73.4714 14.2178C72.5566 15.5345 71.7528 16.9094 71.1817 18.4111C71.1817 18.4164 71.1818 18.4217 71.1765 18.427C71.1553 18.4799 71.2241 18.5222 71.2558 18.4799C71.2981 18.4323 71.3298 18.3847 71.3721 18.3371C72.4138 17.1103 73.4027 15.8412 74.3492 14.5404C75.4544 13.0333 76.5437 11.5104 77.633 9.99803C77.6859 9.924 77.7176 9.89227 77.8022 9.97159C78.0719 10.236 78.3522 10.4898 78.6272 10.7489C78.8175 10.9287 78.8122 10.9234 78.6642 11.1296C78.0719 11.944 77.4744 12.7636 76.8821 13.5832C76.1365 14.6091 75.3539 15.5979 74.4497 16.4916C73.371 17.5598 72.1389 18.4323 70.9279 19.3365C70.8539 19.3947 70.8063 19.3894 70.7323 19.3365C70.1876 18.9135 69.6377 18.4904 69.0877 18.078C67.8451 17.1473 66.724 16.0897 65.7616 14.8682C64.7675 13.6097 63.8527 12.293 62.9008 11.0027C62.8321 10.9076 62.8956 10.8811 62.9431 10.8388L62.9379 10.8335Z" fill="white"/>
</g>
<path d="M15.7957 20.9811C13.9714 21.9382 12.1735 22.541 9.96844 22.541C4.66993 22.541 1.06885 18.628 1.06885 13.2872C1.06885 7.94636 4.68051 4.03857 10.0848 4.03857C12.2528 4.03857 13.9027 4.43517 15.3886 5.30239L15.4943 9.152H13.8551L13.1782 5.22307L14.8281 5.74129V7.24306C13.4056 5.93694 11.9726 5.36584 10.3122 5.36584C6.65819 5.36584 3.95077 8.22133 3.95077 13.2819C3.95077 18.3424 6.42552 21.1768 10.4814 21.1768C11.9673 21.1768 13.0566 20.833 14.5425 20.1033L13.3051 21.3724V19.8125C13.3051 17.7978 13.2787 15.7355 13.2258 13.7155H15.8698C15.8169 15.7037 15.7905 17.7449 15.7905 19.8178V20.9758L15.7957 20.9811ZM10.5025 14.7995V13.7208H17.4456V14.7995L14.5266 15.0745H13.9291L10.5025 14.7995Z" fill="white"/>
<path d="M30.0415 14.3236C30.0415 14.9318 29.9621 15.45 29.8564 15.799H20.0684V14.6726H26.287C27.5561 14.6726 27.847 14.0698 27.847 13.3084C27.847 11.7854 26.6043 10.4423 24.9756 10.4423C23.3469 10.4423 21.4168 11.8542 21.4168 15.6403C21.4168 18.9929 23.1037 20.7696 25.7106 20.7696C27.3869 20.7696 28.4392 20.0135 29.3858 18.9189L30.0097 19.4159C29.0526 21.3037 27.3446 22.4829 24.9333 22.4829C21.3745 22.4829 19.0479 20.0187 19.0479 15.9893C19.0479 11.9599 21.8346 9.24194 25.1184 9.24194C27.884 9.24194 30.0415 11.1244 30.0415 14.3236Z" fill="white"/>
<path d="M34.3246 22.1392C34.3775 20.9494 34.4039 18.2261 34.4039 16.5869V15.3284C34.4039 13.8742 34.3775 13.0704 34.3246 12.0128L32.2358 11.7749V10.8442L35.9215 9.24723L36.3234 9.51163L36.6354 12.5733V16.5922C36.6354 18.2314 36.6618 20.9547 36.7147 22.1445H34.3193L34.3246 22.1392ZM38.5338 21.198V22.1392H32.3998V21.198L35.2817 20.6692H35.8951L38.5285 21.198H38.5338ZM44.5673 14.1174V16.5869C44.5673 18.279 44.5937 20.9494 44.6466 22.1392H42.2565C42.3094 20.9494 42.3358 18.279 42.3358 16.5869V14.3448C42.3358 11.9229 41.7171 11.135 40.1519 11.135C38.8669 11.135 37.8252 11.685 36.3816 12.9646H35.7999V11.7431H37.1642L36.0484 12.2349C37.3123 10.5269 39.3164 9.24194 41.1777 9.24194C43.4674 9.24194 44.562 10.6485 44.562 14.1121L44.5673 14.1174ZM43.827 20.6692L46.4604 21.198V22.1392H40.337V21.198L43.2136 20.6692H43.827ZM52.4939 13.8477V16.5869C52.4939 18.279 52.5204 20.9494 52.5732 22.1392H50.1831C50.236 20.9494 50.2624 18.279 50.2624 16.5869V14.2972C50.2624 11.8383 49.5908 11.135 48.0573 11.135C46.8728 11.135 45.7624 11.6268 44.3082 12.9646H43.6578V11.9917H45.112L43.901 12.2349C45.3023 10.2308 47.2324 9.24194 49.1044 9.24194C51.2513 9.24194 52.4886 10.5745 52.4886 13.8477H52.4939ZM51.7536 20.6692L54.387 21.198V22.1392H48.2636V21.198L51.1296 20.6692H51.7483H51.7536Z" fill="white"/>
<path d="M87.1299 5.51917V4.44043H90.8632V5.91576H90.5882L87.1299 5.51917ZM90.8632 20.6638V22.1391H87.1299V21.0604L90.5882 20.6638H90.8632ZM89.6152 12.6473C89.6152 9.92402 89.6152 7.169 89.5359 4.44572H92.1851C92.1058 7.11612 92.1058 9.87114 92.1058 12.6473V13.5568C92.1058 16.6661 92.1058 19.4159 92.1851 22.1391H89.5359C89.6152 19.4687 89.6152 16.7137 89.6152 13.9376V12.6473ZM90.8632 12.3829H93.4966C96.6905 12.3829 98.0706 11.3465 98.0706 8.93517C98.0706 6.52387 96.6958 5.67781 94.0095 5.67781H90.8632V4.44572H94.7974C98.4672 4.44572 100.561 6.24361 100.561 8.76596C100.561 10.823 99.1441 12.6367 95.5853 13.065V12.8271C99.7416 13.1655 101.444 15.0057 101.444 17.3007C101.444 19.5956 99.4825 22.1391 94.3955 22.1391H90.8685V20.907H93.7874C97.1664 20.907 98.8215 19.6168 98.8215 17.2954C98.8215 14.8418 97.2298 13.6097 93.5865 13.6097H90.8685V12.3829H90.8632Z" fill="white"/>
<path d="M105.479 22.1391C105.532 20.9493 105.558 18.226 105.558 16.5868V15.3441C105.558 13.8899 105.532 13.0703 105.479 12.0127L103.343 11.7748V10.8441L107.425 9.24714L107.827 9.51154L107.748 13.0968V16.5868C107.748 18.226 107.774 20.9493 107.827 22.1391H105.484H105.479ZM109.641 21.1979V22.1391H103.507V21.1979L106.389 20.6691H107.002L109.641 21.1979ZM104.85 4.62549C104.85 3.6102 105.627 2.93335 106.621 2.93335C107.615 2.93335 108.393 3.60492 108.393 4.62549C108.393 5.64606 107.61 6.31763 106.621 6.31763C105.632 6.31763 104.85 5.61962 104.85 4.62549Z" fill="white"/>
<path d="M117.705 20.9811C119.048 20.9811 119.973 20.3783 121.168 18.8342L121.412 19.5322C120.391 21.3883 119.127 22.4829 117.049 22.4829C113.834 22.4829 111.661 19.8283 111.661 15.9682C111.661 12.108 114.067 9.2419 117.303 9.2419C118.852 9.2419 120.137 9.88703 121.507 11.9652L121.242 12.642C119.735 11.172 118.699 10.7384 117.689 10.7384C115.727 10.7384 114.035 12.3195 114.035 15.9153C114.035 19.5111 115.595 20.9811 117.71 20.9811H117.705ZM125.044 21.1979V22.1392L120.936 22.4036L120.666 19.7279V11.9229L120.751 11.5845V4.98512L118.503 4.72072V3.78476L122.638 2.59497L123.014 2.81178L122.908 6.56092V22.1392L122.406 20.759L125.05 21.1979H125.044Z" fill="white"/>
</g>
<defs>
<clipPath id="clip0_561_92">
<rect width="124.977" height="25" fill="white" transform="translate(0.666992)"/>
</clipPath>
</defs>
</svg>
