<svg width="21" height="20" viewBox="0 0 21 20" fill="none" xmlns="http://www.w3.org/2000/svg">
<path d="M7.43326 1.8731L7.50471 1.79656L7.43326 1.8731ZM7.43326 1.8731C6.99289 2.34484 6.81342 2.96809 6.88911 3.56154M7.43326 1.8731L6.88911 3.56154M6.88911 3.56154L3.64948 7.03192C3.05374 6.99774 2.44506 7.21659 2.00318 7.68994L1.92806 7.77041C1.14161 8.61288 1.18703 9.93365 2.0295 10.7201L3.94686 12.51C4.78933 13.2964 6.1101 13.251 6.89656 12.4085L6.97167 12.3281C7.39678 11.8727 7.57876 11.2761 7.52277 10.7015L15.2009 18.2445C15.2009 18.2446 15.2009 18.2446 15.201 18.2447C15.9478 18.9785 17.1525 18.9534 17.8673 18.1876L18.9922 16.9826C19.7071 16.2168 19.6495 15.0132 18.866 14.3186C18.8659 14.3186 18.8659 14.3185 18.8659 14.3185L10.8121 7.17579C11.3884 7.19231 11.9711 6.97255 12.3981 6.51517L12.4732 6.4347C13.2597 5.59223 13.2142 4.27146 12.3718 3.485L10.4544 1.69513C9.61324 0.909892 8.29526 0.953947 7.50837 1.79264L6.88911 3.56154Z" stroke="white" stroke-width="1.5"/>
</svg>
